<?xml version="1.0" encoding="UTF-8"?>
<svg id="Layer_1" data-name="Layer 1" xmlns="http://www.w3.org/2000/svg" viewBox="0 0 360 360">
  <defs>
    <style>
      .cls-1 {
        fill: #00caea;
        stroke-width: 0px;
      }
    </style>
  </defs>
  <path class="cls-1" d="m143.45,290.84c-38.71,0-70.2-31.49-70.2-70.2v-123.82c0-7.45,6.04-13.49,13.49-13.49s13.49,6.04,13.49,13.49v123.82c0,23.83,19.39,43.22,43.22,43.22s43.22-19.39,43.22-43.22v-67.51c0-7.45,6.04-13.49,13.49-13.49s13.49,6.04,13.49,13.49v67.51c0,38.71-31.49,70.2-70.2,70.2Z"/>
  <path class="cls-1" d="m256.87,290.84c-7.45,0-13.49-6.04-13.49-13.49v-123.82c0-23.83-19.39-43.22-43.22-43.22s-43.22,19.39-43.22,43.22v67.51c0,7.45-6.04,13.49-13.49,13.49s-13.49-6.04-13.49-13.49v-67.51c0-38.71,31.49-70.2,70.2-70.2s70.2,31.49,70.2,70.2v123.82c0,7.45-6.04,13.49-13.49,13.49Z"/>
</svg>