<?xml version="1.0" encoding="UTF-8"?>
<svg id="Layer_1" data-name="Layer 1" xmlns="http://www.w3.org/2000/svg" viewBox="0 0 329.95 347.36">
  <defs>
    <style>
      .cls-1 {
        fill: #00caea;
        stroke-width: 0px;
      }
    </style>
  </defs>
  <path class="cls-1" d="m117.51,347.36C52.72,347.36,0,294.65,0,229.85V22.58C0,10.11,10.11,0,22.58,0s22.58,10.11,22.58,22.58v207.27c0,39.89,32.45,72.34,72.34,72.34s72.35-32.45,72.35-72.34v-113c0-12.47,10.11-22.58,22.58-22.58s22.58,10.11,22.58,22.58v113c0,64.8-52.72,117.51-117.51,117.51Z"/>
  <path class="cls-1" d="m307.37,347.36c-12.47,0-22.58-10.11-22.58-22.58V117.51c0-39.89-32.45-72.35-72.34-72.35s-72.35,32.45-72.35,72.35v113c0,12.47-10.11,22.58-22.58,22.58s-22.58-10.11-22.58-22.58v-113C94.93,52.72,147.64,0,212.44,0s117.51,52.72,117.51,117.51v207.26c0,12.47-10.11,22.58-22.58,22.58Z"/>
</svg>